HIERARCHY
ROOT Hips
{
	OFFSET -3.958830 18.904000 13.208200
	CHANNELS 6 Xposition Yposition Zposition Zrotation Yrotation Xrotation 
	JOINT LHipJoint
	{
		OFFSET 0.000000 0.000000 0.000000
		CHANNELS 3 Zrotation Yrotation Xrotation
		JOINT LeftUpLeg
		{
			OFFSET 1.800000 -1.400000 0.085000
			CHANNELS 3 Zrotation Yrotation Xrotation
			JOINT LeftLeg
			{
				OFFSET 2.215000 -6.000000 0.000000
				CHANNELS 3 Zrotation Yrotation Xrotation
				JOINT LeftFoot
				{
					OFFSET 2.500000 -6.900000 0.000000
					CHANNELS 3 Zrotation Yrotation Xrotation
					JOINT LeftToeBase
					{
						OFFSET 0.200000 -0.500000 1.950000
						CHANNELS 3 Zrotation Yrotation Xrotation
						End Site
						{
							OFFSET 0.000000 0.000000 0.000000
						}
					}
				}
			}
		}
	}
	JOINT RHipJoint
	{
		OFFSET 0.000000 0.000000 0.000000
		CHANNELS 3 Zrotation Yrotation Xrotation
		JOINT RightUpLeg
		{
			OFFSET -1.800000 -1.400000 0.085000
			CHANNELS 3 Zrotation Yrotation Xrotation
			JOINT RightLeg
			{
				OFFSET -2.215000 -6.000000 0.000000
				CHANNELS 3 Zrotation Yrotation Xrotation
				JOINT RightFoot
				{
					OFFSET -2.500000 -6.900000 0.000000
					CHANNELS 3 Zrotation Yrotation Xrotation
					JOINT RightToeBase
					{
						OFFSET -0.200000 -0.500000 1.950000
						CHANNELS 3 Zrotation Yrotation Xrotation
						End Site
						{
							OFFSET 0.000000 0.000000 0.000000
						}
					}
				}
			}
		}
	}
	JOINT LowerBack
	{
		OFFSET 0.000000 0.000000 0.000000
		CHANNELS 3 Zrotation Yrotation Xrotation
		JOINT Spine
		{
			OFFSET -0.087000 1.940000 -0.288900
			CHANNELS 3 Zrotation Yrotation Xrotation
			JOINT Spine1
			{
				OFFSET 0.000000 1.950000 0.060000
				CHANNELS 3 Zrotation Yrotation Xrotation
				JOINT Neck
				{
					OFFSET 0.000000 0.000000 0.000000
					CHANNELS 3 Zrotation Yrotation Xrotation
					JOINT Neck1
					{
						OFFSET 0.000000 1.600000 0.340000
						CHANNELS 3 Zrotation Yrotation Xrotation
						JOINT Head
						{
							OFFSET 0.000000 1.667000 -0.240000
							CHANNELS 3 Zrotation Yrotation Xrotation
							End Site
							{
								OFFSET 0.000000 0.000000 0.000000
							}
						}
					}
				}
				JOINT LeftShoulder
				{
					OFFSET 0.000000 0.000000 0.000000
					CHANNELS 3 Zrotation Yrotation Xrotation
					JOINT LeftArm
					{
						OFFSET 2.700000 1.550000 -0.730000
						CHANNELS 3 Zrotation Yrotation Xrotation
						JOINT LeftForeArm
						{
							OFFSET 5.450000 0.000000 0.000000
							CHANNELS 3 Zrotation Yrotation Xrotation
							JOINT LeftHand
							{
								OFFSET 3.450000 0.000000 0.000000
								CHANNELS 3 Zrotation Yrotation Xrotation
								JOINT LeftHandIndex1
								{
									OFFSET 0.750000 0.000000 0.000000
									CHANNELS 3 Zrotation Yrotation Xrotation
									End Site
									{
										OFFSET 0.000000 0.000000 0.000000
									}
								}
							}
						}
					}
				}
				JOINT RightShoulder
				{
					OFFSET 0.000000 0.000000 0.000000
					CHANNELS 3 Zrotation Yrotation Xrotation
					JOINT RightArm
					{
						OFFSET -2.700000 1.550000 -0.730000
						CHANNELS 3 Zrotation Yrotation Xrotation
						JOINT RightForeArm
						{
							OFFSET -5.450000 0.000000 0.000000
							CHANNELS 3 Zrotation Yrotation Xrotation
							JOINT RightHand
							{
								OFFSET -3.450000 0.000000 0.000000
								CHANNELS 3 Zrotation Yrotation Xrotation
								JOINT RightHandIndex1
								{
									OFFSET -0.750000 0.000000 0.000000
									CHANNELS 3 Zrotation Yrotation Xrotation
									End Site
									{
										OFFSET 0.000000 0.000000 0.000000
									}
								}
							}
						}
					}
				}
			}
		}
	}
}
MOTION
Frames: 10
Frame Time: 0.016667
-0.279400 17.635550 -0.655250 -1.838024 -1.594980 2.831696 -14.981568 13.223570 2.679541 5.203995 -1.259255 -12.870583 -7.273510 5.902801 11.880425 0.166049 3.813468 3.350756 -0.359110 -0.373850 -0.193660 18.459936 -11.227018 2.488193 -2.870932 1.426309 -16.335869 3.695703 -4.587085 19.079666 0.340466 -3.571759 3.046447 -0.156240 0.542950 0.095970 -4.090269 -0.961072 -6.507419 10.549964 -0.017507 1.667842 -3.741089 0.031054 4.005453 0.869706 -4.134777 -6.734797 -7.586262 3.824063 25.593629 -2.999580 4.089360 11.119230 -20.973998 -1.763994 1.822502 -50.466128 -3.913621 -4.430243 -6.370490 -19.036549 0.114088 -4.153170 3.238225 -0.445450 0.432650 -0.408530 -0.029100 19.048935 4.698342 3.607495 53.851143 0.829095 -5.621809 13.383374 13.986281 -0.542403 2.917681 -1.558356 -0.125360 -0.100730 0.104180 0.203910 
-0.280850 17.636370 -0.656470 -1.836077 -1.603442 2.811061 -14.981340 13.229365 2.679956 5.231275 -1.270411 -12.939138 -7.292226 5.933807 12.025947 0.156411 3.834535 3.342788 -0.363970 -0.385820 -0.192830 18.460023 -11.225058 2.488259 -2.794272 1.411453 -16.246606 3.557898 -4.541249 18.961490 0.343954 -3.556969 3.055100 -0.160280 0.546350 0.095870 -4.090237 -0.976523 -6.509029 10.601964 -0.009237 1.694251 -3.749540 0.046061 4.039256 0.869069 -4.170770 -6.766206 -7.675443 3.871424 25.665710 -3.033380 4.126920 11.113610 -20.927055 -1.808885 1.827661 -50.454060 -3.963429 -4.403482 -6.481919 -19.069084 0.119902 -4.157501 3.229983 -0.437110 0.434470 -0.411450 -0.033090 19.001922 4.749475 3.658118 53.903445 0.750155 -5.724535 13.382814 14.195745 -0.530406 2.909616 -1.551105 -0.132790 -0.096520 0.111210 0.197930 
-0.281650 17.640290 -0.656520 -1.872547 -1.538496 2.729602 -14.978628 13.244824 2.681216 5.300823 -1.276613 -12.987958 -7.300241 5.975373 12.225721 0.148808 3.856435 3.329458 -0.370220 -0.400640 -0.189590 18.460698 -11.222397 2.490315 -2.699248 1.353390 -15.983260 3.411877 -4.486273 18.661254 0.343720 -3.528349 3.069998 -0.169940 0.540480 0.094230 -4.095450 -1.011576 -6.520797 10.789666 -0.037577 1.769783 -3.800348 0.030918 4.069619 0.898021 -4.250686 -6.878442 -7.902898 3.988150 25.992812 -3.055020 4.224850 11.079440 -20.838986 -1.946190 1.883194 -50.561954 -3.991463 -4.407657 -6.516319 -19.136212 0.110202 -4.154499 3.216215 -0.420180 0.428570 -0.407810 -0.042060 18.848890 4.902595 3.799306 54.084045 0.556448 -5.951390 13.308816 14.576743 -0.505217 2.901519 -1.534599 -0.138150 -0.094190 0.119980 0.188360 
-0.281850 17.646580 -0.656540 -1.927116 -1.445840 2.647694 -14.973667 13.257033 2.681386 5.371100 -1.289996 -13.080496 -7.302949 6.021430 12.470663 0.149198 3.875155 3.318970 -0.380110 -0.417630 -0.188300 18.463436 -11.221523 2.495610 -2.597261 1.282329 -15.679953 3.300551 -4.432709 18.273979 0.343182 -3.498737 3.084658 -0.183250 0.536060 0.092860 -4.107359 -1.037153 -6.535165 11.048652 -0.059811 1.842671 -3.848436 0.016641 4.108617 0.946697 -4.286543 -7.013055 -8.058077 4.058501 26.357381 -3.077410 4.321640 11.187160 -20.812328 -2.144599 1.969719 -50.707865 -3.968361 -4.471041 -6.586872 -19.308192 0.110007 -4.148384 3.205623 -0.407140 0.422620 -0.403150 -0.049330 18.716639 5.080941 3.970407 54.274570 0.271830 -6.251066 13.190490 15.094132 -0.482467 2.897977 -1.520073 -0.141790 -0.093730 0.126270 0.182920 
-0.283160 17.654750 -0.656300 -1.940613 -1.426583 2.562213 -14.971236 13.269979 2.686349 5.418251 -1.306095 -13.170736 -7.343468 6.068294 12.693927 0.153539 3.880135 3.308863 -0.372960 -0.415600 -0.173220 18.463162 -11.218792 2.500171 -2.537787 1.195610 -15.338759 3.181158 -4.362104 17.785107 0.334397 -3.458572 3.099796 -0.190330 0.514730 0.090440 -4.110149 -1.069213 -6.553762 11.220616 -0.081395 1.932300 -3.825963 -0.003143 4.137770 1.009646 -4.311785 -7.147061 -8.215627 4.129391 26.831731 -3.120380 4.466370 11.145500 -20.733257 -2.275204 2.046970 -51.053264 -3.933950 -4.556105 -6.548452 -19.394477 0.088708 -4.127716 3.201613 -0.389300 0.405590 -0.388500 -0.054230 18.511007 5.204201 4.126771 54.458281 -0.009330 -6.565001 13.195990 15.693903 -0.446051 2.896840 -1.513275 -0.137170 -0.100390 0.119930 0.175080 
-0.283120 17.662340 -0.656280 -1.988546 -1.345315 2.530723 -14.967663 13.274021 2.686309 5.455439 -1.334107 -13.337949 -7.339694 6.103375 12.932155 0.148774 3.886713 3.300506 -0.376840 -0.422360 -0.165390 18.465982 -11.216276 2.505693 -2.482595 1.121524 -15.054423 3.166412 -4.332269 17.361744 0.331409 -3.434723 3.110901 -0.196150 0.503640 0.085600 -4.120434 -1.083003 -6.563454 11.472071 -0.136530 1.974960 -3.860947 -0.065986 4.154582 1.109842 -4.260535 -7.192303 -8.182398 4.165815 27.112298 -3.286650 4.687980 11.110100 -20.634150 -2.222332 2.046092 -51.512672 -3.916607 -4.637585 -6.595592 -19.483870 0.076940 -4.121893 3.188429 -0.377100 0.398680 -0.381810 -0.061950 18.203203 5.063590 4.175463 54.734391 -0.233071 -6.871951 13.260535 16.351946 -0.405640 2.891515 -1.503519 -0.141200 -0.099990 0.121100 0.166490 
-0.283140 17.669740 -0.657060 -1.946485 -1.208085 2.498636 -14.967905 13.282141 2.691751 5.378619 -1.359671 -13.454373 -7.308988 6.111018 13.077562 0.138865 3.888192 3.294370 -0.385950 -0.435950 -0.161700 18.464564 -11.214191 2.505801 -2.470627 1.084997 -14.961117 3.082173 -4.311162 17.192743 0.332198 -3.415987 3.118919 -0.203760 0.496300 0.083230 -4.120096 -1.105093 -6.573131 11.604181 -0.203096 2.041931 -3.901080 -0.134929 4.140210 1.222269 -4.167591 -7.207461 -8.076686 4.167572 27.405644 -3.485890 4.896280 11.087060 -20.573119 -2.122989 2.014672 -51.969195 -3.885905 -4.731130 -6.585694 -19.552311 0.052821 -4.121588 3.171342 -0.363380 0.395150 -0.376270 -0.070690 17.912461 4.848360 4.194018 55.119726 -0.472601 -7.222736 13.222602 17.039197 -0.372203 2.883774 -1.489712 -0.148370 -0.098580 0.127090 0.157430 
-0.281490 17.676520 -0.659800 -1.944615 -1.115162 2.484765 -14.962098 13.284338 2.693389 5.289663 -1.397275 -13.625037 -7.194205 6.096851 13.280038 0.134141 3.868658 3.293004 -0.380910 -0.432910 -0.147990 18.468491 -11.219609 2.512324 -2.429170 1.057639 -14.910636 3.013998 -4.281726 16.993251 0.326544 -3.390710 3.125346 -0.207030 0.479520 0.083500 -4.135719 -1.098527 -6.584741 11.850102 -0.266240 2.141056 -4.034167 -0.198205 4.074306 1.370555 -4.020140 -7.165681 -7.862594 4.139121 27.750801 -3.613600 5.072000 10.961410 -20.666971 -1.937481 1.931383 -52.294368 -3.800362 -4.868056 -6.652744 -19.713206 0.048556 -4.112074 3.164955 -0.351470 0.385470 -0.364130 -0.076920 17.687207 4.505409 4.158039 55.424584 -0.707747 -7.540625 13.317158 17.723793 -0.326249 2.880140 -1.484545 -0.144770 -0.103800 0.123220 0.150120 
-0.281040 17.680360 -0.663070 -1.860923 -0.948308 2.462830 -14.964588 13.289200 2.704962 5.201568 -1.444983 -13.799199 -7.222762 6.129457 13.539517 0.123225 3.873462 3.279802 -0.367990 -0.426140 -0.122260 18.462862 -11.225856 2.509677 -2.455264 1.056931 -14.983377 2.900464 -4.277920 17.098772 0.316267 -3.375561 3.123189 -0.206520 0.455870 0.087340 -4.126164 -1.101124 -6.599989 11.827215 -0.301271 2.292122 -4.067840 -0.238034 3.985426 1.548745 -3.721318 -7.062733 -7.383569 3.970179 28.140642 -3.852640 5.252900 10.587650 -20.783423 -1.667731 1.778238 -52.534265 -3.787178 -4.970396 -6.860980 -19.888877 0.061748 -4.102658 3.156013 -0.331050 0.373320 -0.346440 -0.085320 17.443357 3.984246 4.064960 55.735276 -0.968191 -7.874148 13.561625 18.471378 -0.257209 2.871465 -1.478202 -0.142020 -0.109100 0.117960 0.136160 
-0.279250 17.682390 -0.664730 -1.809294 -0.726944 2.462457 -14.966805 13.289812 2.716306 5.156563 -1.493487 -13.975662 -7.278832 6.163003 13.761099 0.108150 3.884877 3.264520 -0.358640 -0.423140 -0.096630 18.458085 -11.233281 2.507154 -2.439420 1.057643 -15.057298 2.771032 -4.277364 17.246518 0.305307 -3.361672 3.118591 -0.204970 0.433770 0.091970 -4.118901 -1.093937 -6.614917 11.828937 -0.341140 2.440077 -4.145249 -0.283999 3.850551 1.757901 -3.361596 -6.911691 -6.783934 3.708982 28.497040 -4.131110 5.383950 10.103650 -20.853683 -1.246120 1.554229 -52.856320 -3.826727 -5.044561 -7.057756 -20.027219 0.072550 -4.098072 3.137713 -0.307820 0.362040 -0.326510 -0.095030 17.088267 3.256256 3.929555 56.187529 -1.270104 -8.253238 13.924887 19.337917 -0.160722 2.861468 -1.467348 -0.143440 -0.109890 0.115100 0.121460 
